<?xml version="1.0" standalone="no"?>
<!DOCTYPE svg PUBLIC "-//W3C//DTD SVG 20010904//EN"
 "http://www.w3.org/TR/2001/REC-SVG-20010904/DTD/svg10.dtd">
<svg version="1.0" xmlns="http://www.w3.org/2000/svg"
 width="1024.000000pt" height="1024.000000pt" viewBox="0 0 1024.000000 1024.000000"
 preserveAspectRatio="xMidYMid meet">
<metadata>
Created by potrace 1.16, written by Peter Selinger 2001-2019
</metadata>
<rect width="100%" height="100%" fill="#FFFFFF"/>
<g transform="translate(0.000000,1024.000000) scale(0.100000,-0.100000)"
fill="#0069C7" stroke="none">
<path d="M4760 10119 c-256 -17 -627 -78 -906 -149 -443 -114 -988 -350 -1394
-604 -608 -381 -1114 -872 -1507 -1461 -410 -616 -685 -1320 -793 -2033 -42
-277 -52 -457 -47 -807 5 -335 17 -479 57 -720 107 -631 331 -1241 651 -1772
324 -537 837 -1101 1334 -1468 219 -161 420 -282 733 -441 494 -251 1009 -406
1604 -484 982 -128 2019 50 2886 495 633 325 1127 716 1566 1240 477 569 798
1167 995 1850 271 942 251 1989 -56 2915 -206 619 -479 1118 -895 1632 -327
404 -709 740 -1189 1045 -589 375 -1335 648 -1999 732 -312 40 -713 51 -1040
30z m2135 -1799 c22 -11 56 -36 75 -55 33 -34 35 -39 33 -101 -2 -75 -22 -118
-71 -151 -73 -49 -167 -38 -232 27 -78 78 -76 168 5 247 59 57 119 67 190 33z
m-2604 -706 c282 -236 513 -427 567 -469 24 -18 47 -20 357 -25 293 -4 334 -7
358 -23 69 -45 925 -893 943 -934 11 -25 11 -38 2 -65 -6 -18 -16 -36 -22 -40
-6 -4 -48 -8 -93 -8 l-83 0 0 -1505 0 -1506 98 3 97 3 -4 561 -4 560 31 35 30
34 174 3 c168 3 174 3 208 -20 l35 -24 8 -229 c4 -127 5 -384 1 -572 l-6 -343
121 0 121 0 2 959 3 959 24 26 24 26 258 0 258 0 28 -24 28 -24 3 -961 2 -961
132 0 131 0 -6 1355 -6 1354 25 31 26 30 269 0 270 0 24 -25 25 -24 1 -348 c2
-1135 -3 -2413 -11 -2452 -9 -49 -36 -76 -85 -85 -44 -8 -7199 -20 -7230 -12
-17 4 -31 18 -41 41 -21 50 -17 73 15 106 27 27 35 29 105 29 l76 0 0 98 c0
53 2 691 6 1417 3 726 3 1357 -1 1402 l-7 83 -84 0 c-72 0 -87 3 -105 21 -17
17 -20 29 -16 63 5 39 30 66 468 500 275 273 476 464 495 472 26 11 104 14
353 14 l320 0 123 103 c68 57 202 166 298 242 96 76 231 186 300 245 178 151
177 150 225 150 41 0 54 -10 336 -246z m3857 -521 c107 -70 107 -215 0 -289
-111 -77 -265 -5 -276 130 -6 72 18 120 77 157 63 40 139 41 199 2z m-740
-775 c61 -37 90 -139 61 -215 -38 -102 -166 -145 -255 -87 -57 37 -84 81 -84
135 1 148 155 241 278 167z"/>
<path d="M3910 7637 c-20 -17 -157 -131 -305 -252 -148 -121 -321 -264 -385
-317 -65 -54 -130 -103 -146 -110 -21 -8 -122 -12 -351 -12 l-323 -1 -365
-365 c-201 -200 -365 -365 -365 -365 0 0 1027 -1 2283 -1 l2282 -2 -365 359
c-201 198 -374 361 -385 364 -11 2 -157 9 -325 15 -168 6 -319 15 -337 20 -30
7 -246 182 -695 560 -92 77 -170 140 -175 140 -4 0 -24 -15 -43 -33z m156
-650 c50 -26 101 -93 115 -150 18 -77 6 -400 -16 -434 l-17 -25 -189 4 c-251
5 -233 -13 -237 234 -3 126 0 200 8 230 14 49 68 117 111 139 66 35 162 35
225 2z"/>
<path d="M3919 6824 c-10 -12 -15 -53 -17 -146 l-4 -128 56 0 56 0 -1 113 c-2
153 -6 171 -45 175 -20 2 -36 -3 -45 -14z"/>
<path d="M2427 6043 l-667 -3 -1 -1458 c-1 -801 -2 -1475 -3 -1497 l-1 -40 53
0 c28 1 108 2 176 3 l123 2 6 158 c8 228 41 329 141 427 159 155 405 190 593
84 82 -47 147 -112 186 -186 55 -105 61 -138 58 -325 l-2 -168 188 0 188 0 -3
134 c-4 154 8 217 63 334 61 129 185 231 316 261 65 15 187 13 254 -4 174 -46
312 -189 356 -370 7 -29 12 -113 11 -202 l-1 -153 183 0 184 0 -5 143 c-8 217
27 327 142 446 196 203 508 203 706 0 97 -100 138 -233 139 -456 l0 -123 170
0 170 0 0 1493 0 1494 -887 6 c-487 4 -1175 6 -1527 5 -353 -2 -941 -4 -1309
-5z m1381 -298 c42 -18 107 -77 128 -117 10 -20 14 -69 14 -193 l0 -165 25 0
26 0 -3 163 c-3 157 -2 163 22 207 34 60 100 100 177 107 112 10 186 -30 229
-122 22 -47 24 -61 24 -251 0 -118 -4 -214 -11 -232 -10 -29 -15 -31 -73 -37
-35 -4 -235 -5 -444 -4 -350 4 -383 5 -399 22 -16 16 -18 40 -18 240 0 122 3
234 8 250 11 39 75 107 122 128 49 23 123 24 173 4z m-1446 -31 c24 -16 58
-51 76 -78 l32 -48 0 -225 c0 -135 -4 -232 -10 -244 -10 -18 -23 -19 -209 -19
-188 0 -199 1 -217 21 -17 19 -19 41 -22 212 -4 209 2 249 48 321 61 96 209
126 302 60z m676 24 c68 -17 145 -95 161 -165 17 -69 20 -428 5 -443 -21 -21
-89 -30 -244 -30 -137 0 -159 2 -187 20 l-33 20 0 212 c0 193 2 217 21 258 27
60 54 88 114 116 56 27 94 29 163 12z m2028 -12 c59 -28 120 -95 135 -149 15
-56 8 -442 -9 -459 -9 -9 -63 -14 -188 -16 -190 -5 -229 2 -245 45 -5 13 -9
115 -9 226 0 181 3 207 21 247 27 60 45 79 104 106 64 31 125 31 191 0z m718
0 c39 -16 90 -68 113 -115 15 -31 18 -63 18 -231 0 -173 -2 -199 -18 -224 -33
-49 -72 -58 -250 -54 -143 3 -160 5 -173 22 -11 16 -14 63 -14 220 0 111 5
217 10 237 38 135 181 201 314 145z m-3429 -991 c41 -24 70 -56 99 -113 14
-28 17 -66 18 -244 1 -270 18 -251 -206 -246 -148 3 -164 5 -192 25 -56 40
-64 72 -64 260 0 161 1 171 25 220 60 119 207 165 320 98z m721 4 c48 -23 99
-83 121 -142 13 -37 17 -424 4 -445 -11 -17 -264 -34 -322 -21 -119 27 -133
54 -137 269 -3 106 0 179 8 205 19 67 54 110 112 140 45 22 62 26 110 22 32
-3 79 -15 104 -28z m785 -4 c82 -58 84 -64 87 -266 l3 -179 24 0 24 0 -2 163
c-2 150 0 165 20 203 25 47 98 100 150 110 118 22 240 -42 274 -143 18 -57 5
-461 -16 -483 -14 -13 -69 -15 -418 -15 -221 0 -419 4 -439 8 -62 13 -68 36
-68 254 0 103 5 205 10 225 14 49 85 126 135 144 24 8 66 13 107 11 56 -2 74
-8 109 -32z m1230 4 c42 -21 86 -69 105 -115 11 -27 18 -236 14 -441 0 -44
-45 -55 -229 -56 -143 0 -171 2 -194 17 -36 24 -40 51 -35 273 3 179 4 190 28
233 57 101 204 143 311 89z m721 -15 c88 -61 108 -116 108 -295 0 -284 -29
-314 -295 -302 -177 8 -165 -10 -165 246 0 202 1 214 24 262 27 57 70 102 112
115 16 5 61 8 101 7 62 -2 78 -7 115 -33z"/>
<path d="M3681 5561 c-6 -11 -11 -79 -11 -155 l0 -136 60 0 60 0 -1 123 c-2
173 -4 181 -56 185 -33 2 -44 -1 -52 -17z"/>
<path d="M4203 5565 c-31 -22 -43 -74 -43 -192 l0 -103 60 0 60 0 0 138 c0 75
-4 142 -8 148 -13 20 -47 24 -69 9z"/>
<path d="M2213 5570 c-30 -12 -34 -35 -31 -180 l3 -125 56 -3 c54 -3 57 -2 63
24 4 15 4 80 0 146 -8 145 -22 166 -91 138z"/>
<path d="M2941 5554 c-19 -24 -21 -40 -21 -160 l0 -134 60 0 60 0 0 140 c0
127 -2 142 -20 160 -27 27 -55 25 -79 -6z"/>
<path d="M4945 5556 c-24 -24 -25 -30 -25 -155 0 -129 0 -131 24 -137 13 -3
38 -4 57 -2 l34 3 3 135 c3 144 -2 162 -45 175 -17 4 -29 -1 -48 -19z"/>
<path d="M5654 5572 c-27 -18 -34 -56 -34 -181 l0 -131 61 0 61 0 -4 139 c-3
120 -6 142 -22 160 -20 21 -42 26 -62 13z"/>
<path d="M2203 4573 c-14 -21 -19 -53 -22 -140 -4 -136 0 -143 77 -143 l55 0
-5 132 c-5 128 -6 132 -32 155 -35 30 -52 29 -73 -4z"/>
<path d="M2949 4581 c-23 -18 -24 -26 -27 -155 l-4 -136 61 0 61 0 2 98 c4
175 0 192 -48 206 -14 4 -30 0 -45 -13z"/>
<path d="M3694 4575 c-23 -23 -24 -30 -24 -155 l0 -130 55 0 55 0 0 133 c0
137 -5 157 -43 171 -12 4 -27 -3 -43 -19z"/>
<path d="M4186 4568 c-13 -18 -16 -51 -16 -150 l0 -128 55 0 55 0 0 138 c0 94
-4 142 -12 150 -20 20 -65 14 -82 -10z"/>
<path d="M4935 4560 c-11 -21 -15 -61 -15 -150 l0 -120 60 0 60 0 0 134 c0
149 -6 166 -60 166 -22 0 -33 -7 -45 -30z"/>
<path d="M5639 4573 c-10 -11 -15 -55 -17 -150 l-4 -133 61 0 61 0 0 134 c0
109 -3 138 -16 150 -20 21 -68 20 -85 -1z"/>
<path d="M2520 3597 c-92 -26 -154 -79 -195 -168 -35 -77 -46 -149 -43 -274
l3 -107 316 -1 316 -2 7 130 c4 72 4 146 0 165 -20 105 -106 215 -190 244 -66
22 -161 28 -214 13z"/>
<path d="M3898 3595 c-79 -16 -137 -52 -180 -114 -65 -94 -78 -142 -78 -301 0
-140 0 -140 23 -136 12 3 158 5 324 5 l302 1 6 55 c4 30 2 104 -4 164 -11 117
-32 175 -87 240 -59 71 -194 109 -306 86z"/>
<path d="M5278 3600 c-115 -20 -204 -86 -256 -190 -26 -53 -27 -61 -27 -210 0
-154 0 -155 23 -154 12 0 156 1 321 2 l298 2 6 38 c10 57 -18 293 -38 333 -41
79 -79 119 -139 149 -70 33 -122 41 -188 30z"/>
</g>
</svg>
